<svg xmlns="http://www.w3.org/2000/svg" xmlns:xlink="http://www.w3.org/1999/xlink" viewBox="0 0 576 576" width="576" height="576" preserveAspectRatio="xMidYMid meet" style="width: 100%; height: 100%; transform: translate3d(0px, 0px, 0px); content-visibility: visible;"><defs><clipPath id="__lottie_element_2"><rect width="576" height="576" x="0" y="0"></rect></clipPath></defs><g clip-path="url(#__lottie_element_2)"><g transform="matrix(-1,0,0,-1,283.7560119628906,287.9800109863281)" opacity="1" style="display: block;"><g opacity="1" transform="matrix(1,0,0,1,0,0)"><path fill="rgb(225,225,225)" fill-opacity="1" d=" M137.42599487304688,-137.4029998779297 C137.42599487304688,-137.4029998779297 137.6439971923828,-137.656005859375 137.6439971923828,-137.656005859375"></path><path stroke-linecap="round" stroke-linejoin="miter" fill-opacity="0" stroke-miterlimit="10" stroke="rgb(225,225,225)" stroke-opacity="1" stroke-width="24" d=" M137.42599487304688,-137.4029998779297 C137.42599487304688,-137.4029998779297 137.6439971923828,-137.656005859375 137.6439971923828,-137.656005859375"></path></g></g><g transform="matrix(-1,0,0,-1,283.7560119628906,287.9800109863281)" opacity="1" style="display: block;"><g opacity="1" transform="matrix(1,0,0,1,0,0)"><path fill="rgb(225,225,225)" fill-opacity="1" d=" M137.42599487304688,-137.4029998779297 C137.42599487304688,-137.4029998779297 137.6439971923828,-137.656005859375 137.6439971923828,-137.656005859375"></path><path stroke-linecap="round" stroke-linejoin="miter" fill-opacity="0" stroke-miterlimit="10" stroke="rgb(225,225,225)" stroke-opacity="1" stroke-width="24" d=" M137.42599487304688,-137.4029998779297 C137.42599487304688,-137.4029998779297 137.6439971923828,-137.656005859375 137.6439971923828,-137.656005859375"></path></g></g><g transform="matrix(0,1,-1,0,371.31201171875,200.20201110839844)" opacity="1" style="display: block;"><g opacity="1" transform="matrix(1,0,0,1,0,0)"><path fill="rgb(225,225,225)" fill-opacity="1" d=" M51.85200119018555,63.85200119018555 C51.85200119018555,63.85200119018555 -51.85200119018555,63.85200119018555 -51.85200119018555,63.85200119018555 C-58.479000091552734,63.85200119018555 -63.85200119018555,58.479000091552734 -63.85200119018555,51.85200119018555 C-63.85200119018555,51.85200119018555 -63.85200119018555,-51.85200119018555 -63.85200119018555,-51.85200119018555 C-63.85200119018555,-58.479000091552734 -58.479000091552734,-63.85200119018555 -51.85200119018555,-63.85200119018555 C-51.85200119018555,-63.85200119018555 51.85200119018555,-63.85200119018555 51.85200119018555,-63.85200119018555 C58.479000091552734,-63.85200119018555 63.85200119018555,-58.479000091552734 63.85200119018555,-51.85200119018555 C63.85200119018555,-51.85200119018555 63.85200119018555,51.85200119018555 63.85200119018555,51.85200119018555 C63.85200119018555,58.479000091552734 58.479000091552734,63.85200119018555 51.85200119018555,63.85200119018555z"></path></g></g><g transform="matrix(0,1,-1,0,196.2010040283203,375.7580261230469)" opacity="1" style="display: block;"><g opacity="1" transform="matrix(1,0,0,1,0,0)"><path fill="rgb(225,225,225)" fill-opacity="1" d=" M51.85200119018555,63.85200119018555 C51.85200119018555,63.85200119018555 -51.85200119018555,63.85200119018555 -51.85200119018555,63.85200119018555 C-58.479000091552734,63.85200119018555 -63.85200119018555,58.479000091552734 -63.85200119018555,51.85200119018555 C-63.85200119018555,51.85200119018555 -63.85200119018555,-51.85200119018555 -63.85200119018555,-51.85200119018555 C-63.85200119018555,-58.479000091552734 -58.479000091552734,-63.85200119018555 -51.85200119018555,-63.85200119018555 C-51.85200119018555,-63.85200119018555 51.85200119018555,-63.85200119018555 51.85200119018555,-63.85200119018555 C58.479000091552734,-63.85200119018555 63.85200119018555,-58.479000091552734 63.85200119018555,-51.85200119018555 C63.85200119018555,-51.85200119018555 63.85200119018555,51.85200119018555 63.85200119018555,51.85200119018555 C63.85200119018555,58.479000091552734 58.479000091552734,63.85200119018555 51.85200119018555,63.85200119018555z"></path></g></g><g transform="matrix(0,1,-1,0,196.2010040283203,200.20201110839844)" opacity="1" style="display: block;"><g opacity="1" transform="matrix(1,0,0,1,0,0)"><path fill="rgb(225,225,225)" fill-opacity="1" d=" M51.85200119018555,63.85200119018555 C51.85200119018555,63.85200119018555 -51.85200119018555,63.85200119018555 -51.85200119018555,63.85200119018555 C-58.479000091552734,63.85200119018555 -63.85200119018555,58.479000091552734 -63.85200119018555,51.85200119018555 C-63.85200119018555,51.85200119018555 -63.85200119018555,-51.85200119018555 -63.85200119018555,-51.85200119018555 C-63.85200119018555,-58.479000091552734 -58.479000091552734,-63.85200119018555 -51.85200119018555,-63.85200119018555 C-51.85200119018555,-63.85200119018555 51.85200119018555,-63.85200119018555 51.85200119018555,-63.85200119018555 C58.479000091552734,-63.85200119018555 63.85200119018555,-58.479000091552734 63.85200119018555,-51.85200119018555 C63.85200119018555,-51.85200119018555 63.85200119018555,51.85200119018555 63.85200119018555,51.85200119018555 C63.85200119018555,58.479000091552734 58.479000091552734,63.85200119018555 51.85200119018555,63.85200119018555z"></path></g></g><g transform="matrix(0,1,-1,0,371.31201171875,375.75799560546875)" opacity="1" style="display: block;"><g opacity="1" transform="matrix(1,0,0,1,0,0)"><path fill="rgb(225,225,225)" fill-opacity="1" d=" M51.85200119018555,63.85200119018555 C51.85200119018555,63.85200119018555 -51.85200119018555,63.85200119018555 -51.85200119018555,63.85200119018555 C-58.479000091552734,63.85200119018555 -63.85200119018555,58.479000091552734 -63.85200119018555,51.85200119018555 C-63.85200119018555,51.85200119018555 -63.85200119018555,-51.85200119018555 -63.85200119018555,-51.85200119018555 C-63.85200119018555,-58.479000091552734 -58.479000091552734,-63.85200119018555 -51.85200119018555,-63.85200119018555 C-51.85200119018555,-63.85200119018555 51.85200119018555,-63.85200119018555 51.85200119018555,-63.85200119018555 C58.479000091552734,-63.85200119018555 63.85200119018555,-58.479000091552734 63.85200119018555,-51.85200119018555 C63.85200119018555,-51.85200119018555 63.85200119018555,51.85200119018555 63.85200119018555,51.85200119018555 C63.85200119018555,58.479000091552734 58.479000091552734,63.85200119018555 51.85200119018555,63.85200119018555z"></path></g></g></g></svg>